<?xml version="1.0" encoding="UTF-8" standalone="no"?> <svg width="64" height="64" viewBox="0 0 64 64" fill="none" xmlns="http://www.w3.org/2000/svg">
<path d="M53.75 12.87L32.53 2.87004C32.3645 2.79102 32.1834 2.75 32 2.75C31.8166 2.75 31.6355 2.79102 31.47 2.87004L10.25 12.87C10.0166 12.9817 9.82324 13.1626 9.69622 13.388C9.56919 13.6135 9.51465 13.8725 9.54 14.13L12.76 44.13C12.7899 44.4392 12.9365 44.7253 13.17 44.93L31.17 60.93C31.3978 61.1352 31.6934 61.2488 32 61.2488C32.3066 61.2488 32.6022 61.1352 32.83 60.93L50.83 44.93C51.0635 44.7253 51.2101 44.4392 51.24 44.13L54.46 14.13C54.4854 13.8725 54.4308 13.6135 54.3038 13.388C54.1768 13.1626 53.9834 12.9817 53.75 12.87V12.87ZM48.81 43.39L32 58.33L15.19 43.39L12.13 14.75L32 5.38005L51.87 14.75L48.81 43.39Z" fill="black"/>
<path d="M31.47 9.49997L16.68 16.5C16.4519 16.6104 16.2638 16.7892 16.142 17.0114C16.0201 17.2336 15.9705 17.4883 16 17.74L18.51 41.19C18.5427 41.4983 18.6888 41.7834 18.92 41.99L31.17 52.91C31.4007 53.1091 31.6952 53.2187 32 53.2187C32.3047 53.2187 32.5993 53.1091 32.83 52.91L45.11 42C45.3411 41.7934 45.4873 41.5083 45.52 41.2L48 17.74C48.0315 17.4817 47.9796 17.2201 47.8518 16.9934C47.7241 16.7667 47.5272 16.5868 47.29 16.48L32.5 9.47997C32.3371 9.40864 32.1606 9.37349 31.9828 9.37694C31.805 9.38039 31.63 9.42237 31.47 9.49997V9.49997Z" fill="black"/>
</svg>
